<?xml version="1.0" encoding="UTF-8" standalone="no"?>
<svg
   xmlns:dc="http://purl.org/dc/elements/1.1/"
   xmlns:cc="http://creativecommons.org/ns#"
   xmlns:rdf="http://www.w3.org/1999/02/22-rdf-syntax-ns#"
   xmlns:svg="http://www.w3.org/2000/svg"
   xmlns="http://www.w3.org/2000/svg"
   xmlns:sodipodi="http://sodipodi.sourceforge.net/DTD/sodipodi-0.dtd"
   xmlns:inkscape="http://www.inkscape.org/namespaces/inkscape"
   height="298"
   viewBox="0 0 325 298"
   width="325"
   version="1.1"
   id="svg18"
   sodipodi:docname="badger_logo_stacked.svg"
   inkscape:version="0.92.1 r15371">
  <metadata
     id="metadata24">
    <rdf:RDF>
      <cc:Work
         rdf:about="">
        <dc:format>image/svg+xml</dc:format>
        <dc:type
           rdf:resource="http://purl.org/dc/dcmitype/StillImage" />
        <dc:title></dc:title>
      </cc:Work>
    </rdf:RDF>
  </metadata>
  <defs
     id="defs22">
    <style
       id="style7276">
      .cls-1 {
        fill: #036;
      }

      .cls-1, .cls-2, .cls-3 {
        fill-rule: evenodd;
      }

      .cls-2 {
        fill: #c20017;
      }

      .cls-3, .cls-4 {
        fill: #fff;
      }
    </style>
  </defs>
  <sodipodi:namedview
     pagecolor="#ffffff"
     bordercolor="#666666"
     borderopacity="1"
     objecttolerance="10"
     gridtolerance="10"
     guidetolerance="10"
     inkscape:pageopacity="0"
     inkscape:pageshadow="2"
     inkscape:window-width="1920"
     inkscape:window-height="1137"
     id="namedview20"
     showgrid="false"
     inkscape:zoom="0.70710678"
     inkscape:cx="180.50106"
     inkscape:cy="16.184089"
     inkscape:window-x="-8"
     inkscape:window-y="-8"
     inkscape:window-maximized="1"
     inkscape:current-layer="svg18"
     inkscape:snap-bbox="true"
     showborder="true"
     inkscape:snap-global="true">
    <inkscape:grid
       type="xygrid"
       id="grid4504" />
  </sodipodi:namedview>
  <rect
     style="opacity:1;fill:#ffffff;fill-opacity:1;stroke:none;stroke-width:5.6583147;stroke-linecap:butt;stroke-linejoin:round;stroke-miterlimit:4;stroke-dasharray:none;stroke-opacity:1"
     id="rect4617"
     width="325"
     height="298"
     x="0"
     y="0" />
  <rect
     style="fill:#c20017;fill-opacity:1;stroke-width:0.24987273"
     id="rect6-5-5-4"
     x="5.9999995"
     y="254"
     width="313"
     height="38.000008" />
  <path
     inkscape:connector-curvature="0"
     id="path8527"
     style="font-style:normal;font-variant:normal;font-weight:900;font-stretch:normal;font-size:medium;line-height:1.25;font-family:Arial;-inkscape-font-specification:'Arial Heavy';letter-spacing:4.1500001px;word-spacing:0px;fill:#ffffff;fill-opacity:1;stroke:none;stroke-width:0.89589441"
     d="m 13.863301,259.79772 h 7.121662 v 4.84693 h -7.121662 z m 0,7.06917 h 7.121662 v 18.58282 h -7.121662 z" />
  <path
     inkscape:connector-curvature="0"
     id="path8529"
     style="font-style:normal;font-variant:normal;font-weight:900;font-stretch:normal;font-size:medium;line-height:1.25;font-family:Arial;-inkscape-font-specification:'Arial Heavy';letter-spacing:4.1500001px;word-spacing:0px;fill:#ffffff;fill-opacity:1;stroke:none;stroke-width:0.89589441"
     d="m 29.719425,266.86689 h 6.63172 v 3.02715 q 1.487325,-1.85479 3.009646,-2.64219 1.522321,-0.80491 3.709564,-0.80491 2.957152,0 4.619456,1.76729 1.679803,1.7498 1.679803,5.42437 v 11.81111 h -7.156658 v -10.2188 q 0,-1.7498 -0.647424,-2.46721 -0.647424,-0.73491 -1.819786,-0.73491 -1.294848,0 -2.099753,0.97988 -0.804906,0.97989 -0.804906,3.51709 v 8.92395 h -7.121662 z" />
  <path
     inkscape:connector-curvature="0"
     id="path8531"
     style="font-style:normal;font-variant:normal;font-weight:900;font-stretch:normal;font-size:medium;line-height:1.25;font-family:Arial;-inkscape-font-specification:'Arial Heavy';letter-spacing:4.1500001px;word-spacing:0px;fill:#ffffff;fill-opacity:1;stroke:none;stroke-width:0.89589441"
     d="m 66.398101,259.79772 v 7.06917 h 3.919539 v 5.19689 h -3.919539 v 6.59673 q 0,1.18986 0.227474,1.57481 0.349958,0.59493 1.224856,0.59493 0.787407,0 2.20474,-0.45495 l 0.524938,4.91693 q -2.642189,0.57743 -4.934419,0.57743 -2.659687,0 -3.919539,-0.68242 -1.259852,-0.68242 -1.87228,-2.06476 -0.59493,-1.39983 -0.59493,-4.51447 v -6.54423 H 56.63425 v -5.19689 h 2.624691 v -3.4121 z" />
  <path
     inkscape:connector-curvature="0"
     id="path8533"
     style="font-style:normal;font-variant:normal;font-weight:900;font-stretch:normal;font-size:medium;line-height:1.25;font-family:Arial;-inkscape-font-specification:'Arial Heavy';letter-spacing:4.1500001px;word-spacing:0px;fill:#ffffff;fill-opacity:1;stroke:none;stroke-width:0.89589441"
     d="m 98.474817,277.92559 h -14.27832 q 0.192477,1.7148 0.92739,2.5547 1.032379,1.20736 2.694683,1.20736 1.049877,0 1.994766,-0.52494 0.577432,-0.33246 1.242354,-1.17236 l 7.016674,0.64742 q -1.60981,2.79967 -3.884543,4.02453 -2.274732,1.20736 -6.526732,1.20736 -3.692066,0 -5.809317,-1.03238 -2.117251,-1.04988 -3.517086,-3.30711 -1.382337,-2.27473 -1.382337,-5.33687 0,-4.35699 2.782172,-7.05167 2.799671,-2.69469 7.716593,-2.69469 3.98953,0 6.299259,1.20736 2.309728,1.20736 3.517086,3.49959 1.207358,2.29223 1.207358,5.9668 z m -7.244148,-3.4121 q -0.209975,-2.06475 -1.119868,-2.95715 -0.892395,-0.89239 -2.362222,-0.89239 -1.697301,0 -2.712181,1.34734 -0.647424,0.8399 -0.822404,2.5022 z" />
  <path
     inkscape:connector-curvature="0"
     id="path8535"
     style="font-style:normal;font-variant:normal;font-weight:900;font-stretch:normal;font-size:medium;line-height:1.25;font-family:Arial;-inkscape-font-specification:'Arial Heavy';letter-spacing:4.1500001px;word-spacing:0px;fill:#ffffff;fill-opacity:1;stroke:none;stroke-width:0.89589441"
     d="m 106.00192,266.86689 h 6.66671 v 3.04464 q 0.96239,-1.97726 1.97727,-2.71218 1.03238,-0.75241 2.5372,-0.75241 1.57482,0 3.4471,0.97989 l -2.20474,5.0744 q -1.25986,-0.52494 -1.99477,-0.52494 -1.39984,0 -2.16974,1.15487 -1.10238,1.6273 -1.10238,6.08928 v 6.22927 h -7.15665 z" />
  <path
     inkscape:connector-curvature="0"
     id="path8537"
     style="font-style:normal;font-variant:normal;font-weight:900;font-stretch:normal;font-size:medium;line-height:1.25;font-family:Arial;-inkscape-font-specification:'Arial Heavy';letter-spacing:4.1500001px;word-spacing:0px;fill:#ffffff;fill-opacity:1;stroke:none;stroke-width:0.89589441"
     d="m 127.78984,266.86689 h 6.63172 v 3.02715 q 1.48733,-1.85479 3.00965,-2.64219 1.52232,-0.80491 3.70956,-0.80491 2.95715,0 4.61946,1.76729 1.6798,1.7498 1.6798,5.42437 v 11.81111 h -7.15666 v -10.2188 q 0,-1.7498 -0.64742,-2.46721 -0.64742,-0.73491 -1.81979,-0.73491 -1.29484,0 -2.09975,0.97988 -0.80491,0.97989 -0.80491,3.51709 v 8.92395 h -7.12166 z" />
  <path
     inkscape:connector-curvature="0"
     id="path8539"
     style="font-style:normal;font-variant:normal;font-weight:900;font-stretch:normal;font-size:medium;line-height:1.25;font-family:Arial;-inkscape-font-specification:'Arial Heavy';letter-spacing:4.1500001px;word-spacing:0px;fill:#ffffff;fill-opacity:1;stroke:none;stroke-width:0.89589441"
     d="m 162.36877,272.88618 -6.8067,-0.71741 q 0.38495,-1.78479 1.10237,-2.79967 0.73491,-1.03238 2.09975,-1.78479 0.97989,-0.54244 2.69468,-0.8399 1.7148,-0.29747 3.70957,-0.29747 3.20212,0 5.14439,0.36746 1.94227,0.34996 3.23712,1.48732 0.9099,0.78741 1.43483,2.23974 0.52494,1.43483 0.52494,2.74718 v 8.20653 q 0,1.31235 0.15748,2.06476 0.17498,0.73491 0.73492,1.88978 h -6.68422 q -0.40245,-0.71742 -0.52494,-1.08488 -0.12248,-0.38495 -0.24497,-1.18986 -1.39983,1.34735 -2.78217,1.92478 -1.88978,0.76991 -4.39198,0.76991 -3.32461,0 -5.05691,-1.53982 -1.7148,-1.53982 -1.7148,-3.79705 0,-2.11726 1.24236,-3.4821 1.24235,-1.36483 4.58446,-2.02976 4.00703,-0.8049 5.19689,-1.11986 1.18986,-0.33247 2.5197,-0.8574 0,-1.31235 -0.54244,-1.83729 -0.54243,-0.52494 -1.90727,-0.52494 -1.74979,0 -2.62469,0.55994 -0.68242,0.43745 -1.10237,1.6448 z m 6.17677,3.74456 q -1.46983,0.52494 -3.06214,0.9274 -2.16974,0.57743 -2.74718,1.13736 -0.59493,0.57743 -0.59493,1.31235 0,0.8399 0.57744,1.38233 0.59493,0.52494 1.73229,0.52494 1.18986,0 2.20474,-0.57743 1.03238,-0.57743 1.45233,-1.39983 0.43745,-0.83991 0.43745,-2.16975 z" />
  <path
     inkscape:connector-curvature="0"
     id="path8541"
     style="font-style:normal;font-variant:normal;font-weight:900;font-stretch:normal;font-size:medium;line-height:1.25;font-family:Arial;-inkscape-font-specification:'Arial Heavy';letter-spacing:4.1500001px;word-spacing:0px;fill:#ffffff;fill-opacity:1;stroke:none;stroke-width:0.89589441"
     d="m 191.92578,259.79772 v 7.06917 h 3.91954 v 5.19689 h -3.91954 v 6.59673 q 0,1.18986 0.22747,1.57481 0.34996,0.59493 1.22486,0.59493 0.78741,0 2.20474,-0.45495 l 0.52494,4.91693 q -2.64219,0.57743 -4.93442,0.57743 -2.65969,0 -3.91954,-0.68242 -1.25985,-0.68242 -1.87228,-2.06476 -0.59493,-1.39983 -0.59493,-4.51447 v -6.54423 h -2.62469 v -5.19689 h 2.62469 v -3.4121 z" />
  <path
     inkscape:connector-curvature="0"
     id="path8543"
     style="font-style:normal;font-variant:normal;font-weight:900;font-stretch:normal;font-size:medium;line-height:1.25;font-family:Arial;-inkscape-font-specification:'Arial Heavy';letter-spacing:4.1500001px;word-spacing:0px;fill:#ffffff;fill-opacity:1;stroke:none;stroke-width:0.89589441"
     d="m 203.63489,259.79772 h 7.12166 v 4.84693 h -7.12166 z m 0,7.06917 h 7.12166 v 18.58282 h -7.12166 z" />
  <path
     inkscape:connector-curvature="0"
     id="path8545"
     style="font-style:normal;font-variant:normal;font-weight:900;font-stretch:normal;font-size:medium;line-height:1.25;font-family:Arial;-inkscape-font-specification:'Arial Heavy';letter-spacing:4.1500001px;word-spacing:0px;fill:#ffffff;fill-opacity:1;stroke:none;stroke-width:0.89589441"
     d="m 218.61612,276.21079 q 0,-4.252 2.86966,-6.99917 2.86966,-2.76468 7.75159,-2.76468 5.58184,0 8.43401,3.23712 2.29223,2.60719 2.29223,6.42175 0,4.28699 -2.85217,7.03417 -2.83466,2.72968 -7.85657,2.72968 -4.47948,0 -7.24415,-2.27473 -3.3946,-2.81717 -3.3946,-7.38414 z m 7.13916,-0.0175 q 0,2.4847 0.99738,3.67456 1.01488,1.18986 2.5372,1.18986 1.53982,0 2.51971,-1.17236 0.99738,-1.17236 0.99738,-3.76206 0,-2.41471 -0.99738,-3.58707 -0.99739,-1.18986 -2.46721,-1.18986 -1.55732,0 -2.5722,1.20735 -1.01488,1.18986 -1.01488,3.63958 z" />
  <path
     inkscape:connector-curvature="0"
     id="path8547"
     style="font-style:normal;font-variant:normal;font-weight:900;font-stretch:normal;font-size:medium;line-height:1.25;font-family:Arial;-inkscape-font-specification:'Arial Heavy';letter-spacing:4.1500001px;word-spacing:0px;fill:#ffffff;fill-opacity:1;stroke:none;stroke-width:0.89589441"
     d="m 247.5782,266.86689 h 6.63172 v 3.02715 q 1.48733,-1.85479 3.00965,-2.64219 1.52232,-0.80491 3.70956,-0.80491 2.95715,0 4.61946,1.76729 1.6798,1.7498 1.6798,5.42437 v 11.81111 h -7.15666 v -10.2188 q 0,-1.7498 -0.64742,-2.46721 -0.64742,-0.73491 -1.81979,-0.73491 -1.29484,0 -2.09975,0.97988 -0.8049,0.97989 -0.8049,3.51709 v 8.92395 h -7.12167 z" />
  <path
     inkscape:connector-curvature="0"
     id="path8549"
     style="font-style:normal;font-variant:normal;font-weight:900;font-stretch:normal;font-size:medium;line-height:1.25;font-family:Arial;-inkscape-font-specification:'Arial Heavy';letter-spacing:4.1500001px;word-spacing:0px;fill:#ffffff;fill-opacity:1;stroke:none;stroke-width:0.89589441"
     d="m 282.15711,272.88618 -6.8067,-0.71741 q 0.38496,-1.78479 1.10237,-2.79967 0.73492,-1.03238 2.09976,-1.78479 0.97988,-0.54244 2.69468,-0.8399 1.7148,-0.29747 3.70956,-0.29747 3.20213,0 5.1444,0.36746 1.94227,0.34996 3.23712,1.48732 0.90989,0.78741 1.43483,2.23974 0.52494,1.43483 0.52494,2.74718 v 8.20653 q 0,1.31235 0.15748,2.06476 0.17498,0.73491 0.73491,1.88978 h -6.68421 q -0.40245,-0.71742 -0.52494,-1.08488 -0.12249,-0.38495 -0.24497,-1.18986 -1.39984,1.34735 -2.78217,1.92478 -1.88978,0.76991 -4.39199,0.76991 -3.32461,0 -5.0569,-1.53982 -1.7148,-1.53982 -1.7148,-3.79705 0,-2.11726 1.24235,-3.4821 1.24236,-1.36483 4.58446,-2.02976 4.00703,-0.8049 5.19689,-1.11986 1.18986,-0.33247 2.51971,-0.8574 0,-1.31235 -0.54244,-1.83729 -0.54244,-0.52494 -1.90728,-0.52494 -1.74979,0 -2.62469,0.55994 -0.68242,0.43745 -1.10237,1.6448 z m 6.17678,3.74456 q -1.46983,0.52494 -3.06214,0.9274 -2.16975,0.57743 -2.74718,1.13736 -0.59493,0.57743 -0.59493,1.31235 0,0.8399 0.57743,1.38233 0.59493,0.52494 1.7323,0.52494 1.18986,0 2.20474,-0.57743 1.03238,-0.57743 1.45233,-1.39983 0.43745,-0.83991 0.43745,-2.16975 z" />
  <path
     inkscape:connector-curvature="0"
     id="path8551"
     style="font-style:normal;font-variant:normal;font-weight:900;font-stretch:normal;font-size:medium;line-height:1.25;font-family:Arial;-inkscape-font-specification:'Arial Heavy';letter-spacing:4.1500001px;word-spacing:0px;fill:#ffffff;fill-opacity:1;stroke:none;stroke-width:0.89589441"
     d="m 303.99754,259.79772 h 7.13916 v 25.65199 h -7.13916 z" />
  <path
     style="fill:#003366;fill-opacity:1;stroke:none;stroke-width:0"
     d="M 6 6 L 6 40.763672 A 236.68117 236.65441 0 0 1 51.365234 27.515625 L 55.876953 6 L 6 6 z M 90.363281 6 L 84.105469 23.951172 A 236.68117 236.65441 0 0 1 94.242188 23.513672 A 236.68117 236.65441 0 0 1 113.5918 24.535156 L 122.45703 6 L 90.363281 6 z M 161.23242 6 L 146.25195 29.65625 A 236.68117 236.65441 0 0 1 273.36914 106.26172 L 269.82422 106.26172 A 233.97177 233.94531 0 0 0 144.6875 32.126953 L 96.771484 107.78711 L 76.460938 107.78711 L 76.460938 139.85742 L 61.974609 162.73438 L 50.539062 162.73438 L 50.539062 180.79102 L 7.9765625 248 L 319 248 L 319 6 L 161.23242 6 z M 94.242188 26.222656 A 233.97177 233.94531 0 0 0 83.113281 26.798828 L 6 248 L 6.71875 248 L 112.31641 27.203125 A 233.97177 233.94531 0 0 0 94.242188 26.222656 z M 50.736328 30.515625 A 233.97177 233.94531 0 0 0 6 43.671875 L 6 243.86719 L 50.736328 30.515625 z M 305.26953 160.18359 L 308.35742 160.18359 A 236.68117 236.65441 0 0 1 316.73242 180.3125 L 314.21094 181.11328 A 233.97177 233.94531 0 0 0 305.26953 160.18359 z "
     id="rect2-2-07-3-4-8-8-0-8" />
  <path
     id="path4859-9-4-9-7-3-8-7"
     d="m 271.67164,111.24951 v 43.94442 h 11.19285 v -14.69827 h 3.87991 c 1.64155,0 2.81069,0.24929 3.50711,0.74667 0.74614,0.44765 1.31801,1.46705 1.71597,3.0587 l 0.27722,1.02493 v 0.002 l 2.58303,9.86689 h 12.21575 l -3.35778,-12.82353 c 0,-0.004 0,-0.007 0,-0.01 -0.49744,-1.89005 -1.31862,-3.28179 -2.46273,-4.17709 -1.09438,-0.94502 -2.66132,-1.59212 -4.70083,-1.94029 v -0.22347 c 2.98462,-0.34819 5.2985,-1.44291 6.94004,-3.28324 1.69132,-1.89005 2.53689,-4.47626 2.53689,-7.759 0,-4.92413 -1.41847,-8.43108 -4.25392,-10.52011 -2.83539,-2.13875 -6.86471,-3.20801 -12.08784,-3.20801 z m 11.19285,9.47582 h 6.04392 c 3.78056,0 5.67112,1.76514 5.67112,5.29658 0,3.43197 -1.91486,5.14832 -5.74527,5.14832 h -5.96977 z"
     style="font-style:normal;font-variant:normal;font-weight:900;font-stretch:normal;font-size:medium;line-height:0.64999998;font-family:National;-inkscape-font-specification:'National Heavy';letter-spacing:-64.40000153px;word-spacing:0px;fill:#ffffff;fill-opacity:1;stroke:none;stroke-width:1.86530077"
     inkscape:connector-curvature="0" />
  <path
     d="m 104.55228,132.51272 v 0.29846 c 3.18364,0.44765 5.59624,1.6165 7.23779,3.50656 1.64155,1.89005 2.46233,4.20289 2.46233,6.93852 0,3.73039 -1.29334,6.66496 -3.88003,8.80371 -2.5867,2.08903 -6.49162,3.13354 -11.714763,3.13354 H 79.923685 v -43.944 h 18.883151 c 4.377494,0 7.735224,0.9699 10.073204,2.9097 2.33797,1.93979 3.50695,4.65055 3.50695,8.13226 0,2.68587 -0.69642,4.89923 -2.08925,6.64008 -1.39283,1.74085 -3.30799,2.93458 -5.74546,3.58117 z m -13.436124,-3.20813 h 5.153737 c 3.332861,0 4.999297,-1.39268 4.999297,-4.17803 0,-2.93457 -1.741054,-4.40186 -5.223151,-4.40186 h -4.929883 z m 0,8.05764 v 8.35609 h 6.571433 c 1.741051,0 3.034411,-0.29843 3.880061,-0.8953 0.89538,-0.64661 1.34307,-1.76573 1.34307,-3.35736 0,-2.73562 -1.74104,-4.10343 -5.223131,-4.10343 z"
     style="font-style:normal;font-variant:normal;font-weight:900;font-stretch:normal;font-size:medium;line-height:0.64999998;font-family:National;-inkscape-font-specification:'National Heavy';letter-spacing:-64.40000153px;word-spacing:0px;fill:#ffffff;fill-opacity:1;stroke:none;stroke-width:1.86530077"
     id="path4849-6-1-9-2-6-6"
     inkscape:connector-curvature="0"
     sodipodi:nodetypes="cccscsccssssccsssccccscssc" />
  <path
     sodipodi:nodetypes="ccccccccccccc"
     d="m 146.86747,155.19351 -2.91001,-8.20687 h -16.19174 l -2.76079,8.20687 h -11.71476 l 15.89326,-43.944 h 13.65478 l 16.04249,43.944 z m -15.96785,-17.53283 h 9.7747 l -4.88735,-16.18992 z"
     style="font-style:normal;font-variant:normal;font-weight:900;font-stretch:normal;font-size:medium;line-height:0.64999998;font-family:National;-inkscape-font-specification:'National Heavy';letter-spacing:-64.40000153px;word-spacing:0px;fill:#ffffff;fill-opacity:1;stroke:none;stroke-width:1.86530077"
     id="path4851-3-8-8-3-4-9"
     inkscape:connector-curvature="0" />
  <path
     style="font-style:normal;font-variant:normal;font-weight:900;font-stretch:normal;font-size:medium;line-height:0.64999998;font-family:National;-inkscape-font-specification:'National Heavy';letter-spacing:-64.40000153px;word-spacing:0px;fill:#ffffff;fill-opacity:1;stroke:none;stroke-width:1.86530077"
     d="m 158.66124,111.24969 v 36.57721 l 2.68972,7.36717 h 12.74361 c 6.86467,0 12.28714,-1.7919 16.26668,-5.3731 4.02927,-3.63089 6.0442,-9.32548 6.0442,-17.08469 0,-7.31155 -1.96499,-12.70842 -5.89478,-16.19013 -3.92981,-3.53144 -9.1275,-5.29646 -15.59424,-5.29646 z m 11.19376,9.47425 h 3.79128 c 3.73083,0 6.5179,0.94494 8.35844,2.835 1.84054,1.84032 2.7606,5.12261 2.7606,9.84778 0,4.57594 -0.97001,7.78529 -2.91002,9.62559 -1.89028,1.79059 -4.82529,2.68558 -8.80482,2.68558 H 169.855 Z"
     id="path4853-4-4-3-4-3-5-8"
     inkscape:connector-curvature="0" />
  <path
     sodipodi:nodetypes="scscscccccccscscccscccs"
     id="path4855-3-4-5-73-3-9"
     d="m 219.58834,110.35439 c -6.9144,0 -11.95497,2.01445 -15.78527,6.04327 -3.78057,3.97908 -5.67111,9.64899 -5.67111,17.01029 0,7.5105 1.79079,13.18042 5.37238,17.01029 3.63132,3.78011 8.10008,5.67045 14.06936,5.67045 5.77034,0 9.79859,-1.86487 12.08681,-5.59525 l 1.86638,4.7003 h 6.5661 v -23.72501 h -19.40077 v 8.80329 h 6.52965 c -0.0215,3.11118 -0.82559,6.71473 -5.63353,6.71473 -3.63131,0 -5.93691,-1.21887 -7.57845,-3.65604 -1.5918,-2.48692 -2.38747,-5.72022 -2.38747,-9.69931 0,-2.58641 0.32355,-4.79918 0.97021,-6.63951 0.69641,-1.89005 1.59187,-3.28289 2.68626,-4.17818 1.09431,-0.94504 2.13934,-1.59213 3.1342,-1.94029 1.04465,-0.39789 1.78219,-0.59628 2.87657,-0.59628 3.22616,0 5.55487,1.55289 6.99269,4.64767 l 11.4679,-3.65281 c -1.49569,-3.37465 -3.73947,-6.02392 -6.74665,-7.93304 -3.13389,-1.98954 -6.93829,-2.98457 -11.41526,-2.98457 z"
     style="font-style:normal;font-variant:normal;font-weight:900;font-stretch:normal;font-size:medium;line-height:0.64999998;font-family:National;-inkscape-font-specification:'National Heavy';letter-spacing:-64.40000153px;word-spacing:0px;fill:#ffffff;fill-opacity:1;stroke:none;stroke-width:1.86530077"
     inkscape:connector-curvature="0" />
  <path
     d="m 269.33863,145.4945 v 9.69901 h -28.91316 v -43.944 h 28.91316 v 9.69902 H 251.6179 v 7.31155 h 15.40764 v 9.32597 H 251.6179 v 7.90845 z"
     style="font-style:normal;font-variant:normal;font-weight:900;font-stretch:normal;font-size:medium;line-height:0.64999998;font-family:National;-inkscape-font-specification:'National Heavy';letter-spacing:-64.40000153px;word-spacing:0px;fill:#ffffff;fill-opacity:1;stroke:none;stroke-width:1.86530077"
     id="path4857-7-5-8-4-0-1"
     inkscape:connector-curvature="0"
     sodipodi:nodetypes="ccccccccccccc" />
  <path
     sodipodi:nodetypes="ccccccccccccc"
     inkscape:connector-curvature="0"
     id="path4863-3-8-9-1-4-3"
     d="m 118.07093,166.19638 v 71.3432 h 49.15318 v -15.74529 h -30.98132 v -12.84117 h 27.25518 v -15.14007 h -27.25518 v -11.87132 h 30.98132 l -3.2621,-15.74535 z"
     style="font-style:normal;font-variant:normal;font-weight:900;font-stretch:normal;font-size:medium;line-height:0.64999998;font-family:National;-inkscape-font-specification:'National Heavy';letter-spacing:-64.40000153px;word-spacing:0px;fill:#ffffff;fill-opacity:1;stroke:none;stroke-width:3.02836561" />
  <path
     sodipodi:nodetypes="cccccccccccccc"
     d="m 219.97393,166.19578 12.11486,47.1824 10.7816,-47.1824 h 16.74832 l -14.77922,71.34425 h -18.80813 l -12.11484,-42.57955 -12.11485,42.57955 h -19.53494 l -14.77922,-71.34425 h 17.47517 l 10.78157,47.1824 12.11485,-47.1824 z"
     style="font-style:normal;font-variant:normal;font-weight:900;font-stretch:normal;font-size:medium;line-height:0.64999998;font-family:National;-inkscape-font-specification:'National Heavy';letter-spacing:-64.40000153px;word-spacing:0px;fill:#ffffff;fill-opacity:1;stroke:none;stroke-width:3.02836561"
     id="path4865-4-2-9-4-5-2-2-3"
     inkscape:connector-curvature="0" />
  <path
     id="path4567-9-26-8-5-0-4-6-1"
     d="m 284.95774,164.62163 c -1.5756,0.01 -3.24569,0.11515 -5.01932,0.32757 -12.67279,1.51819 -18.68728,8.74664 -20.92218,18.35681 -1.64714,12.30479 1.97233,15.9787 5.64001,19.27819 4.60417,4.14198 11.08504,6.09892 18.15391,8.10088 4.356,1.23355 9.40928,2.51482 8.71677,7.38448 -0.32099,2.25702 -1.75942,4.2128 -7.48682,3.89625 -7.92519,0.0596 -9.46916,-4.31882 -11.28204,-8.5108 l -16.92204,3.7947 c 2.2311,10.73357 8.89241,17.70642 17.22858,19.99462 12.54969,3.44488 20.60778,1.40331 27.19061,-2.66456 8.64533,-5.3419 13.14109,-16.39829 9.50988,-28.21806 -1.51325,-4.9256 -5.22763,-8.78224 -10.9333,-10.89571 -3.51616,-1.30218 -6.98079,-3.01233 -15.51013,-4.77745 -3.51814,-0.72797 -6.25454,-2.56055 -5.94851,-5.12792 0.19839,-1.66359 1.40469,-5.30157 7.3834,-5.2295 4.81482,0.0579 6.87441,4.07666 9.02716,7.28106 l 15.79363,-5.02452 c -3.10882,-9.09305 -9.38781,-18.05309 -24.6177,-17.96604 z"
     style="fill:#ffffff;fill-rule:evenodd;stroke-width:0.24520232"
     inkscape:connector-curvature="0" />
  <path
     id="path4561-9-2-7-5-4-1-6-3"
     d="M 96.44656,166.10736 V 202.2206 L 74.828865,166.19578 H 54.003089 v 71.34425 h 18.27877 l 0.08646,-40.94331 24.447273,40.94331 h 17.556018 v -71.43267 z"
     style="fill:#ffffff;fill-rule:evenodd;stroke-width:0.2460321"
     inkscape:connector-curvature="0" />
</svg>
