<?xml version="1.0" encoding="UTF-8" standalone="no"?>
<!-- Created with Inkscape (http://www.inkscape.org/) -->

<svg
   xmlns:dc="http://purl.org/dc/elements/1.1/"
   xmlns:cc="http://creativecommons.org/ns#"
   xmlns:rdf="http://www.w3.org/1999/02/22-rdf-syntax-ns#"
   xmlns:svg="http://www.w3.org/2000/svg"
   xmlns="http://www.w3.org/2000/svg"
   xmlns:sodipodi="http://sodipodi.sourceforge.net/DTD/sodipodi-0.dtd"
   xmlns:inkscape="http://www.inkscape.org/namespaces/inkscape"
   width="116"
   height="60"
   viewBox="0 0 30.691665 15.875"
   version="1.1"
   id="svg8"
   inkscape:version="0.92.1 r15371"
   sodipodi:docname="gnn_ticker.svg"
   inkscape:export-filename="C:\Users\jedli\Dropbox\megagames\webassets\nnn_ticker.png"
   inkscape:export-xdpi="96"
   inkscape:export-ydpi="96">
  <defs
     id="defs2" />
  <sodipodi:namedview
     id="base"
     pagecolor="#ffffff"
     bordercolor="#666666"
     borderopacity="1.0"
     inkscape:pageopacity="0.0"
     inkscape:pageshadow="2"
     inkscape:zoom="4"
     inkscape:cx="83.483222"
     inkscape:cy="60.297463"
     inkscape:document-units="px"
     inkscape:current-layer="layer1"
     showgrid="false"
     units="px"
     inkscape:window-width="1920"
     inkscape:window-height="1137"
     inkscape:window-x="-8"
     inkscape:window-y="-8"
     inkscape:window-maximized="1"
     showborder="false">
    <inkscape:grid
       type="xygrid"
       id="grid4497" />
  </sodipodi:namedview>
  <metadata
     id="metadata5">
    <rdf:RDF>
      <cc:Work
         rdf:about="">
        <dc:format>image/svg+xml</dc:format>
        <dc:type
           rdf:resource="http://purl.org/dc/dcmitype/StillImage" />
        <dc:title></dc:title>
      </cc:Work>
    </rdf:RDF>
  </metadata>
  <g
     inkscape:label="Layer 1"
     inkscape:groupmode="layer"
     id="layer1"
     transform="translate(0,-281.12498)">
    <rect
       style="opacity:1;fill:#d40000;fill-opacity:1;stroke:none;stroke-width:0.59346551;stroke-linecap:square;stroke-linejoin:round;stroke-miterlimit:4;stroke-dasharray:none;stroke-dashoffset:0;stroke-opacity:1"
       id="rect8374-7-3-9-0-3-2-5-2-9-7-7-7-37-2-1-8-4"
       width="30.691666"
       height="15.874999"
       x="-30.691666"
       y="281.12497"
       transform="scale(-1,1)" />
    <path
       style="opacity:1;fill:#ffffff;fill-opacity:1;stroke:none;stroke-width:0.04650912;stroke-linecap:butt;stroke-linejoin:round;stroke-miterlimit:4;stroke-dasharray:none;stroke-opacity:1"
       d="m 13.075019,283.63867 c -0.43292,0.004 -0.836945,0.16356 -1.164354,0.4291 -0.288572,0.23408 -0.5104,0.55332 -0.629613,0.93794 -0.06142,0.1982 -0.10352,0.40808 -0.10352,0.63606 v 3.17613 0.15521 l 0.159557,0.0376 1.166507,0.24993 v -3.57714 c 0,-0.34799 0.217013,-0.64015 0.54121,-0.72878 0.27718,-0.0755 0.667569,0.002 0.929328,0.44634 0.01377,0.0209 1.144335,1.97368 2.238144,3.85958 0.96064,1.65591 1.868864,3.21839 1.884527,3.24509 0.114578,0.19486 0.274636,0.28749 0.429086,0.24577 0.09939,-0.0292 0.215635,-0.12393 0.215635,-0.30418 v -6.7662 c 0,-0.34882 0.218348,-0.64086 0.54121,-0.72877 0.275553,-0.0747 0.661394,0.003 0.922857,0.44633 0.01335,0.0209 1.007734,1.73435 2.05918,3.54698 1.006074,1.7346 2.04557,3.52916 2.063495,3.55986 0.114619,0.19486 0.274635,0.28541 0.429081,0.24368 0.09956,-0.0292 0.215636,-0.12184 0.215636,-0.30209 v -8.765 h -1.330379 v 5.21802 c 0,0 -2.164624,-3.72756 -2.264022,-3.89625 -1.373548,-2.33315 -3.969581,-1.36796 -3.969581,0.64039 v 3.25586 c 0,0 -2.162513,-3.72756 -2.261865,-3.89625 -0.311979,-0.52987 -0.689096,-0.8749 -1.082418,-1.09103 -0.0067,-0.004 -0.01294,-0.004 -0.01919,-0.008 -0.148208,-0.0797 -0.298293,-0.14395 -0.448491,-0.18735 -7.01e-4,-2e-4 -0.0014,1.7e-4 -0.0022,0 -0.157387,-0.0455 -0.314524,-0.0709 -0.470051,-0.0734 -0.01627,-3.4e-4 -0.03338,-3.4e-4 -0.04957,0 z m -4.3059494,0.0376 v 0.008 c -2.972295,-5.9e-4 -5.381904,2.40679 -5.3819,5.37917 0,2.97217 2.40966,5.38188 5.3819,5.38188 h 3.3917164 c 1.289367,9.6e-4 2.119069,-0.75401 2.117396,-2.14755 v -3.07043 c 0,0 2.164749,3.72756 2.264022,3.89625 1.373556,2.33315 3.969581,1.37022 3.969581,-0.63822 v -3.25803 c 0,0 2.162604,3.72756 2.261865,3.89625 1.373702,2.33315 3.969581,1.37022 3.969581,-0.63822 v -8.80169 h -1.326069 v 8.76284 c 0,0.34799 -0.219182,0.64019 -0.543366,0.72881 -0.05933,0.0167 -0.122505,0.0209 -0.189725,0.0209 -0.24693,0 -0.531833,-0.12268 -0.737422,-0.47221 -0.01085,-0.0209 -0.824961,-1.42116 -2.065648,-3.55991 -1.002268,-1.72792 -2.039194,-3.51643 -2.057027,-3.54697 -0.114285,-0.19403 -0.272257,-0.2854 -0.424771,-0.24368 -0.129598,0.0376 -0.213466,0.15564 -0.213466,0.30418 v 6.76403 c 0,0.34799 -0.219182,0.64015 -0.543366,0.72881 -0.277181,0.0755 -0.665471,-0.002 -0.927168,-0.44633 -0.01168,-0.0209 -0.879371,-1.51667 -1.884527,-3.24944 -1.040134,-1.79301 -2.219188,-3.82515 -2.238148,-3.85745 -0.114619,-0.19486 -0.274552,-0.2854 -0.429085,-0.24367 -0.09947,0.0292 -0.215636,0.12225 -0.215636,0.30167 v 6.61741 c 0,0.43582 -0.383204,0.81723 -0.819358,0.81723 H 8.7690736 c -2.234693,0 -4.053678,-1.81701 -4.053678,-4.05152 0,-2.23484 1.818985,-4.05348 4.053678,-4.05369 h 2.0570244 c 0.141532,-0.5506 0.457858,-1.01079 0.879729,-1.32824 z m 0,1.77675 c -1.990359,-0.003 -3.609497,1.61906 -3.609497,3.60948 0,1.99037 1.619096,3.60948 3.609497,3.60948 h 3.3593714 c 0.21163,0 0.375193,-0.20028 0.375193,-0.37303 v -1.17944 -1.40585 l -1.259225,-0.26954 -0.252269,-0.0517 -2.2898974,-0.47655 c 1.9966064,1.38244 2.8200774,2.43221 1.9233414,2.43221 H 8.7820256 c -1.259626,0 -2.279114,-1.02156 -2.279114,-2.28129 0,-1.25951 1.019488,-2.28124 2.279114,-2.28124 h 1.9556824 v -1.14494 c 0,-0.063 0.01085,-0.12184 0.01502,-0.18317 z"
       id="rect5273-1-6-1-6-0-1-4-4-1-8"
       inkscape:connector-curvature="0" />
  </g>
</svg>
