<?xml version="1.0" encoding="UTF-8" standalone="no"?>
<!-- Created with Inkscape (http://www.inkscape.org/) -->

<svg
   xmlns:dc="http://purl.org/dc/elements/1.1/"
   xmlns:cc="http://creativecommons.org/ns#"
   xmlns:rdf="http://www.w3.org/1999/02/22-rdf-syntax-ns#"
   xmlns:svg="http://www.w3.org/2000/svg"
   xmlns="http://www.w3.org/2000/svg"
   xmlns:sodipodi="http://sodipodi.sourceforge.net/DTD/sodipodi-0.dtd"
   xmlns:inkscape="http://www.inkscape.org/namespaces/inkscape"
   width="60"
   height="60"
   viewBox="0 0 15.875 15.875"
   version="1.1"
   id="svg8"
   inkscape:version="0.92.1 r15371"
   sodipodi:docname="control_ticker.svg"
   inkscape:export-filename="C:\Users\jedli\Dropbox\megagames\webassets\hypnowars_ticker_o.png"
   inkscape:export-xdpi="96"
   inkscape:export-ydpi="96">
  <defs
     id="defs2" />
  <sodipodi:namedview
     id="base"
     pagecolor="#ffffff"
     bordercolor="#666666"
     borderopacity="1.0"
     inkscape:pageopacity="0.0"
     inkscape:pageshadow="2"
     inkscape:zoom="2.8284271"
     inkscape:cx="98.272162"
     inkscape:cy="5.7731475"
     inkscape:document-units="px"
     inkscape:current-layer="layer1"
     showgrid="false"
     units="px"
     inkscape:window-width="1920"
     inkscape:window-height="1137"
     inkscape:window-x="-8"
     inkscape:window-y="-8"
     inkscape:window-maximized="1">
    <inkscape:grid
       type="xygrid"
       id="grid4497" />
  </sodipodi:namedview>
  <metadata
     id="metadata5">
    <rdf:RDF>
      <cc:Work
         rdf:about="">
        <dc:format>image/svg+xml</dc:format>
        <dc:type
           rdf:resource="http://purl.org/dc/dcmitype/StillImage" />
        <dc:title></dc:title>
      </cc:Work>
    </rdf:RDF>
  </metadata>
  <g
     inkscape:label="Layer 1"
     inkscape:groupmode="layer"
     id="layer1"
     transform="translate(0,-281.12498)">
    <rect
       inkscape:export-ydpi="90"
       inkscape:export-xdpi="90"
       y="281.12497"
       x="3.3068005e-008"
       height="15.875"
       width="15.875"
       id="rect8374-7-3-9-0-3-2-5-2-9-7-7-7-37-2-1-8-79-6-3-8-6-6"
       style="opacity:1;fill:#ffffff;fill-opacity:1;stroke:none;stroke-width:0.42681754;stroke-linecap:square;stroke-linejoin:round;stroke-miterlimit:4;stroke-dasharray:none;stroke-dashoffset:0;stroke-opacity:1" />
    <path
       style="color:#000000;font-style:normal;font-variant:normal;font-weight:normal;font-stretch:normal;font-size:medium;line-height:normal;font-family:sans-serif;text-indent:0;text-align:start;text-decoration:none;text-decoration-line:none;text-decoration-style:solid;text-decoration-color:#000000;letter-spacing:normal;word-spacing:normal;text-transform:none;writing-mode:lr-tb;direction:ltr;baseline-shift:baseline;text-anchor:start;white-space:normal;clip-rule:nonzero;display:inline;overflow:visible;visibility:visible;opacity:1;isolation:auto;mix-blend-mode:normal;color-interpolation:sRGB;color-interpolation-filters:linearRGB;solid-color:#000000;solid-opacity:1;fill:#2e3436;fill-opacity:1;fill-rule:nonzero;stroke:none;stroke-width:1.35598302;stroke-linecap:round;stroke-linejoin:round;stroke-miterlimit:4;stroke-dasharray:none;stroke-dashoffset:0;stroke-opacity:1;color-rendering:auto;image-rendering:auto;shape-rendering:auto;text-rendering:auto;enable-background:accumulate"
       d="m 7.9367717,283.63788 c -1.389351,0 -2.778626,0.52896 -3.836688,1.58706 l 7.2e-4,0.002 c -2.11617,2.1161 -2.116339,5.55754 -4e-6,7.67365 2.065181,2.06512 5.391788,2.11369 7.5177873,0.14808 0.0018,-0.002 0.0035,-0.003 0.0053,-0.005 0.05072,-0.047 0.101416,-0.0941 0.15074,-0.14346 0.07863,-0.0787 0.153214,-0.15973 0.225998,-0.24187 l 0.0013,-0.002 c 0.0013,-0.002 0.0015,-0.002 0.0018,-0.002 0.07249,-0.0819 0.141667,-0.16577 0.208349,-0.25093 9e-6,-0.002 0.0013,-0.002 0.0013,-0.002 0.0013,-0.002 0.0011,-0.002 0.0016,-0.002 0.549449,-0.70307 0.901939,-1.51031 1.056073,-2.34802 0.0018,-0.009 0.0029,-0.019 0.0046,-0.0284 0.01567,-0.0879 0.02929,-0.17601 0.0406,-0.26441 0.0034,-0.0273 0.0066,-0.0545 0.0097,-0.0819 0.0085,-0.0754 0.0154,-0.15099 0.02074,-0.22665 0.0021,-0.0262 0.0044,-0.0524 0.0057,-0.0786 0.0053,-0.0944 0.0086,-0.18885 0.009,-0.28336 4e-6,-0.006 -4e-6,-0.0126 -4e-6,-0.0188 v -0.003 c 4e-6,-0.10013 -0.0035,-0.20016 -0.0088,-0.30016 -0.0013,-0.0272 -0.0037,-0.0543 -0.0057,-0.0814 -0.0054,-0.0784 -0.01262,-0.15668 -0.02141,-0.23482 -0.003,-0.025 -0.0057,-0.05 -0.0088,-0.075 -0.01199,-0.0946 -0.0263,-0.18876 -0.04326,-0.28271 -0.0013,-0.003 -0.0015,-0.007 -0.0018,-0.0106 a 0.33902762,0.33902085 0 0 0 -0.0013,-0.002 c -0.191425,-1.04558 -0.689689,-2.04587 -1.496788,-2.85296 -1.058096,-1.05806 -2.4475623,-1.58702 -3.8369163,-1.58702 z m 7.19e-4,0.67446 c 1.214418,0 2.4290073,0.46411 3.3575483,1.39261 0.587891,0.58788 0.989143,1.29077 1.204813,2.03527 -0.162867,-0.0147 -0.325677,-0.0224 -0.487968,-0.0225 -1.424179,-0.002 -2.8079383,0.55976 -3.8349223,1.58417 -1.142217,1.14282 -1.706884,2.72915 -1.56368,4.32171 -0.74367,-0.21584 -1.445387,-0.6171 -2.032668,-1.20435 -1.857072,-1.85704 -1.857072,-4.85749 0,-6.71453 0.928516,-0.92827 2.14262,-1.39237 3.356881,-1.39237 z m 0.538737,1.79824 a 0.6779874,0.67797391 0 0 0 -0.677997,0.67799 0.6779874,0.67797391 0 0 0 0.677997,0.67798 0.6779874,0.67797391 0 0 0 0.677997,-0.67798 0.6779874,0.67797391 0 0 0 -0.677997,-0.67799 z m -2.495923,0.30082 a 0.6779874,0.67797391 0 0 0 -0.04812,0 0.6779874,0.67797391 0 0 0 -0.555064,0.33834 0.6779874,0.67797391 0 0 0 0.248064,0.92605 0.6779874,0.67797391 0 0 0 0.926078,-0.24806 0.6779874,0.67797391 0 0 0 -0.248087,-0.92606 0.6779874,0.67797391 0 0 0 -0.322886,-0.0907 z m 6.0309173,1.98408 c 0.161123,0 0.322715,0.0121 0.48444,0.0291 -0.484204,0.0877 -0.966805,0.24756 -1.43434,0.46944 l -0.323995,-0.32377 c 0.412677,-0.11472 0.840946,-0.1751 1.273893,-0.17478 z m -1.976615,0.43081 0.129996,0.12997 0.27478,0.27477 c -0.370142,0.22743 -0.7251533,0.49493 -1.0573953,0.79717 l -0.476269,-0.47627 c 0.343519,-0.29688 0.723762,-0.54043 1.1288883,-0.72564 z m -4.3716723,0.0978 a 0.6779874,0.67797391 0 0 0 -0.677998,0.67798 0.6779874,0.67797391 0 0 0 0.677998,0.67799 0.6779874,0.67797391 0 0 0 0.677997,-0.67799 0.6779874,0.67797391 0 0 0 -0.677997,-0.67798 z m 7.0125993,0.16089 c -0.0013,0.19324 -0.01461,0.38508 -0.0384,0.57514 -0.166146,0.0961 -0.333036,0.19864 -0.500115,0.31007 l -0.5597,-0.55968 c 0.36466,-0.15342 0.734295,-0.26392 1.09821,-0.32553 z m -1.739134,0.64355 0.641804,0.64179 c -0.339653,0.25952 -0.675194,0.54626 -1.000002,0.85433 l -0.7159653,-0.71596 c 0.3371913,-0.3029 0.6991173,-0.5647 1.0741633,-0.78016 z m -2.5104883,0.30258 0.476494,0.47627 c -0.302454,0.33215 -0.56971,0.68724 -0.79739,1.05737 l -0.274119,-0.2741 -0.131101,-0.1311 c 0.1855,-0.40507 0.428857,-0.78515 0.726111,-1.12844 z m 3.6398193,0.82652 0.03884,0.0389 0.141467,0.14167 c -0.119725,0.2634 -0.262069,0.51619 -0.427941,0.7539 -0.0026,0.004 -0.0055,0.008 -0.0081,0.0115 -0.04825,0.0687 -0.09855,0.13597 -0.150527,0.20219 -0.0034,0.004 -0.0069,0.009 -0.01037,0.0135 -0.04052,0.0512 -0.08305,0.10088 -0.12579,0.15051 l -0.465245,-0.46522 c 0.328142,-0.30924 0.667455,-0.59266 1.00772,-0.84683 z m -2.6833003,0.13021 0.7164063,0.71639 c -0.3080283,0.32493 -0.5947183,0.66045 -0.8541213,1.0002 l -0.642684,-0.64267 c 0.21567,-0.37493 0.47739,-0.73693 0.780399,-1.07392 z m -1.939967,0.8733 0.325088,0.32509 c -0.223816,0.47086 -0.384539,0.95735 -0.472304,1.44513 -0.0628,-0.60031 -0.01162,-1.20048 0.147216,-1.77022 z m 3.1359543,0.32267 0.465681,0.46545 -0.0013,0.002 c -0.04254,0.0367 -0.08539,0.0732 -0.129112,0.10814 -0.02443,0.0196 -0.04938,0.0383 -0.07415,0.0574 -0.04389,0.0337 -0.08811,0.0669 -0.13309,0.0991 -0.02484,0.0178 -0.04987,0.0353 -0.07503,0.0525 -0.04695,0.0322 -0.09454,0.0634 -0.14257,0.0938 -0.02282,0.0144 -0.04563,0.029 -0.06865,0.043 -0.05055,0.0308 -0.101733,0.0602 -0.153394,0.0892 -0.02373,0.0134 -0.04731,0.0273 -0.07128,0.0401 -0.05061,0.0272 -0.102276,0.0528 -0.153837,0.0781 -0.043,0.0211 -0.08618,0.0416 -0.1297673,0.0613 l -0.141693,-0.14212 -0.03863,-0.0388 c 0.25401,-0.34034 0.5370313,-0.67991 0.8461723,-1.00815 z m -2.2946393,0.51864 0.561022,0.56101 c -0.11065,0.16602 -0.212576,0.3319 -0.308094,0.49702 -0.191456,0.024 -0.384663,0.0378 -0.57935,0.0384 0.06201,-0.36343 0.172958,-0.73239 0.326422,-1.09643 z"
       id="path4793-3-3-6-6-3-2-7-3-9-9-9-5-9-5-2-9-2-7-0-6-1-0-6-5-4-0-8-6-4-9-7-96-0-1-7-0-4"
       inkscape:connector-curvature="0" />
  </g>
</svg>
